<mxfile host="Electron" agent="Mozilla/5.0 (Windows NT 10.0; Win64; x64) AppleWebKit/537.36 (KHTML, like Gecko) draw.io/26.0.9 Chrome/128.0.6613.186 Electron/32.2.5 Safari/537.36" version="26.0.9">
  <diagram name="PÃ¡gina-1" id="8q0yfULbKHAWEY4MZPIJ">
    <mxGraphModel dx="1098" dy="828" grid="1" gridSize="10" guides="1" tooltips="1" connect="1" arrows="1" fold="1" page="1" pageScale="1" pageWidth="827" pageHeight="1169" math="0" shadow="0">
      <root>
        <mxCell id="0" />
        <mxCell id="1" parent="0" />
        <mxCell id="IjemsFRVP_cy6X6xwkhd-1" value="Google Drive" style="shape=process;whiteSpace=wrap;html=1;backgroundOutline=1;" vertex="1" parent="1">
          <mxGeometry x="180" y="280" width="120" height="60" as="geometry" />
        </mxCell>
        <mxCell id="IjemsFRVP_cy6X6xwkhd-3" style="edgeStyle=orthogonalEdgeStyle;rounded=0;orthogonalLoop=1;jettySize=auto;html=1;" edge="1" parent="1" source="IjemsFRVP_cy6X6xwkhd-2" target="IjemsFRVP_cy6X6xwkhd-1">
          <mxGeometry relative="1" as="geometry" />
        </mxCell>
        <mxCell id="IjemsFRVP_cy6X6xwkhd-2" value="Despezzas&amp;nbsp;&lt;div&gt;App&lt;/div&gt;" style="shape=process;whiteSpace=wrap;html=1;backgroundOutline=1;" vertex="1" parent="1">
          <mxGeometry x="40" y="200" width="120" height="60" as="geometry" />
        </mxCell>
        <mxCell id="IjemsFRVP_cy6X6xwkhd-15" style="edgeStyle=orthogonalEdgeStyle;rounded=0;orthogonalLoop=1;jettySize=auto;html=1;entryX=0;entryY=0.5;entryDx=0;entryDy=0;" edge="1" parent="1" source="IjemsFRVP_cy6X6xwkhd-4" target="IjemsFRVP_cy6X6xwkhd-14">
          <mxGeometry relative="1" as="geometry" />
        </mxCell>
        <mxCell id="IjemsFRVP_cy6X6xwkhd-4" value="Download Data" style="rounded=1;whiteSpace=wrap;html=1;" vertex="1" parent="1">
          <mxGeometry x="100" y="415" width="120" height="60" as="geometry" />
        </mxCell>
        <mxCell id="IjemsFRVP_cy6X6xwkhd-25" style="edgeStyle=orthogonalEdgeStyle;rounded=0;orthogonalLoop=1;jettySize=auto;html=1;" edge="1" parent="1" source="IjemsFRVP_cy6X6xwkhd-10" target="IjemsFRVP_cy6X6xwkhd-22">
          <mxGeometry relative="1" as="geometry" />
        </mxCell>
        <mxCell id="IjemsFRVP_cy6X6xwkhd-10" value="Read Database" style="rounded=1;whiteSpace=wrap;html=1;" vertex="1" parent="1">
          <mxGeometry x="180" y="700" width="120" height="60" as="geometry" />
        </mxCell>
        <mxCell id="IjemsFRVP_cy6X6xwkhd-12" value="" style="endArrow=classic;startArrow=classic;html=1;rounded=0;entryX=0.5;entryY=1;entryDx=0;entryDy=0;exitX=0.5;exitY=0;exitDx=0;exitDy=0;" edge="1" parent="1" source="IjemsFRVP_cy6X6xwkhd-4" target="IjemsFRVP_cy6X6xwkhd-1">
          <mxGeometry width="50" height="50" relative="1" as="geometry">
            <mxPoint x="170" y="440" as="sourcePoint" />
            <mxPoint x="220" y="390" as="targetPoint" />
          </mxGeometry>
        </mxCell>
        <mxCell id="IjemsFRVP_cy6X6xwkhd-20" style="edgeStyle=orthogonalEdgeStyle;rounded=0;orthogonalLoop=1;jettySize=auto;html=1;entryX=0.5;entryY=0;entryDx=0;entryDy=0;" edge="1" parent="1" source="IjemsFRVP_cy6X6xwkhd-14" target="IjemsFRVP_cy6X6xwkhd-16">
          <mxGeometry relative="1" as="geometry" />
        </mxCell>
        <mxCell id="IjemsFRVP_cy6X6xwkhd-21" value="Load on" style="edgeLabel;html=1;align=center;verticalAlign=middle;resizable=0;points=[];" vertex="1" connectable="0" parent="IjemsFRVP_cy6X6xwkhd-20">
          <mxGeometry x="0.0609" y="-1" relative="1" as="geometry">
            <mxPoint as="offset" />
          </mxGeometry>
        </mxCell>
        <mxCell id="IjemsFRVP_cy6X6xwkhd-14" value="" style="swimlane;startSize=0;" vertex="1" parent="1">
          <mxGeometry x="340" y="360" width="320" height="170" as="geometry">
            <mxRectangle x="340" y="360" width="50" height="40" as="alternateBounds" />
          </mxGeometry>
        </mxCell>
        <mxCell id="IjemsFRVP_cy6X6xwkhd-19" style="edgeStyle=orthogonalEdgeStyle;rounded=0;orthogonalLoop=1;jettySize=auto;html=1;entryX=0;entryY=0.5;entryDx=0;entryDy=0;" edge="1" parent="IjemsFRVP_cy6X6xwkhd-14" source="IjemsFRVP_cy6X6xwkhd-5" target="IjemsFRVP_cy6X6xwkhd-7">
          <mxGeometry relative="1" as="geometry" />
        </mxCell>
        <mxCell id="IjemsFRVP_cy6X6xwkhd-5" value="Read Files" style="rounded=1;whiteSpace=wrap;html=1;" vertex="1" parent="IjemsFRVP_cy6X6xwkhd-14">
          <mxGeometry x="14" y="70" width="106" height="60" as="geometry" />
        </mxCell>
        <mxCell id="IjemsFRVP_cy6X6xwkhd-7" value="Clean &amp;amp; Transform" style="rounded=1;whiteSpace=wrap;html=1;" vertex="1" parent="IjemsFRVP_cy6X6xwkhd-14">
          <mxGeometry x="180" y="70" width="120" height="60" as="geometry" />
        </mxCell>
        <mxCell id="IjemsFRVP_cy6X6xwkhd-24" style="edgeStyle=orthogonalEdgeStyle;rounded=0;orthogonalLoop=1;jettySize=auto;html=1;entryX=1;entryY=0.5;entryDx=0;entryDy=0;" edge="1" parent="1" source="IjemsFRVP_cy6X6xwkhd-16" target="IjemsFRVP_cy6X6xwkhd-23">
          <mxGeometry relative="1" as="geometry" />
        </mxCell>
        <mxCell id="IjemsFRVP_cy6X6xwkhd-16" value="" style="swimlane;startSize=0;" vertex="1" parent="1">
          <mxGeometry x="530" y="610" width="250" height="240" as="geometry" />
        </mxCell>
        <mxCell id="IjemsFRVP_cy6X6xwkhd-8" value="Table A" style="shape=cylinder3;whiteSpace=wrap;html=1;boundedLbl=1;backgroundOutline=1;size=15;" vertex="1" parent="IjemsFRVP_cy6X6xwkhd-16">
          <mxGeometry x="30" y="20" width="60" height="80" as="geometry" />
        </mxCell>
        <mxCell id="IjemsFRVP_cy6X6xwkhd-17" value="Table C" style="shape=cylinder3;whiteSpace=wrap;html=1;boundedLbl=1;backgroundOutline=1;size=15;" vertex="1" parent="IjemsFRVP_cy6X6xwkhd-16">
          <mxGeometry x="95" y="110" width="60" height="80" as="geometry" />
        </mxCell>
        <mxCell id="IjemsFRVP_cy6X6xwkhd-18" value="Table B" style="shape=cylinder3;whiteSpace=wrap;html=1;boundedLbl=1;backgroundOutline=1;size=15;" vertex="1" parent="IjemsFRVP_cy6X6xwkhd-16">
          <mxGeometry x="155" y="20" width="60" height="80" as="geometry" />
        </mxCell>
        <mxCell id="IjemsFRVP_cy6X6xwkhd-9" value="" style="shape=image;verticalLabelPosition=bottom;labelBackgroundColor=default;verticalAlign=top;aspect=fixed;imageAspect=0;image=data:image/png,iVBORw0KGgoAAAANSUhEUgAAATYAAACjCAMAAAA3vsLfAAAA81BMVEX///84ODj/lDkuLi42NjYkJCQnJycrKyvw8PAxMTHz8/MeHh4hISHX19cvLy/4+PiRkZEXFxehoaFvb2+CgoKwsLDR0dG8vLz6///d3d1ERET///tTU1PJycn9lTz///kAAACVlZV5eXnm5uZhYWGrq6tLS0vDw8M+Pj5+fn6Kior/kjr/lTJqamr///L7lzjtmEwQEBD77dj03cHyzKHsoFzrmlL9/errtXzykz7qkzTtv4bqvJDy06v+lEH2z5zqpWzwu4zyqWz0z6r7373tsnb/8uD437vtm0XtsXr35s70xJ//jijskUTuoF/78dDoqWRXl3qUAAAM5UlEQVR4nO2be1viOBSHe7/QKoKCxUKrAoJQWwYvI+PIrpfB0dXd+f6fZpOTpBQoiO4+j+6z5/eHQk3T9O3JuSRVklAoFAqFQqFQKBQKhUKhUCgUCoVCoVAoFAqFQqFQKBQKhUKhUCgUCoVCoVAoFAqFQqFQKBQKhUKhqHxf8iXJk+hPKvYpjkPf8z92ZJ9aBFsYD0+HoQfgfPojPju/OL8OJeS2XJ709TIYfbsKJY9aHjW1x6gfRclNiPa2VGEYfu9Ho/74KvQoJs8Lr5N+0B8n/Sc0t6Xyw3CgBJESKFdffZ94tq+/jQMlSqJA+cP76MF9YvnxKAiUJOmPf78efh0+PI6UIFEouhuKDdHlKvTicwUURdHoZUR/0W9JNH4MqafzcabmKPTCM+BEpimZm0kQjBnEoD8aUlMLP3qEn1LEnT2NAFSiCKujP/tBFN2QABF/9AA/pzxibhcMG7E04uXIb258SXAWo2tbIk8KbxKYovMKotHVXySdi4cP1xOa1n30UD+TSHVwmkQ0B1lUlLzcXl3+Go37g1NM4mble/EoCnKxkTkbRf0++fB8/vWjx/mp5NNQeRnlzFEaF6jDA6sbRafo5jKiBbt/T1xbHjgIEWQCB0kQnYaMW5Frrp8lh5er8LbmSy73jzpJ+3nnyZNRkgNtSq+vRIMJCwkFQ6Mye7M9FHR2eGvta5ZIc/XknQOWNlwtlXx0WLEIgff0UzZsTdN33zeI+HbJLAVo9MfolJcLBZMOVNbM2VG2DflVbMUClTiPYJPtf45NJtJs09muvaufsqHJ78bm3T0vx0aIRoN7jxdZBVMGGZWZHvZg/LK6CltnX9f1kmhRIs3t7feNl2DT5Rlpdqn8nn7K9HaM92IbBstnKQmyg6FH0mLwbQKbXc92UHXl17E1aCP1gH/7d7ER6Yfv6OcfYZPi87z8Q5jb7YRSY8WpwCa7G5nzD+0PwWa7RI5rMlPXe6+fN6/Xsflsmnl+KBJXgiKO2Rru9/4SSyPUfsSZAiHFZmceblM8+9XY9H8Zm31SsCyrWS3X2fVLjTf38yo23yMmQ+RTcDDfPGnyYzC4nHih7z/1c82Nrl9exV5mFSTFJpvW7MXnsVnVaqNWSL8WGbbNrSILC1NszUanOu2LqVmtVpuZq4Jop6QtPZthS6nvGuDg9uBCM5EHvljZjjudTM8z2NhVrGywo7SG3y8ubiY+91KSH/7+HCnRr5gYYjjInZ7KWPkt9L08a5PNdnqwq81jKxwcmbru6maLD6nmkpAF96aq7lYG2+4RCRS6eZKJhM1e1yDnGt2euL9jXVVNx5IOTFffry5iYw5A1jvkY8VRVdURAaJrkm9fxKMrHxn0asZRubiIzSJDI2e2so+PYPvrglhUNHoQ6X549Twm5tSH/P8qD9tYSa7JiZ4/rRCm2Nizpeqk/llgqxgqyw1kW6/XBLa01YHAdiLtOMwt2qV0phw4NmurbTq8vx0Vcp5DeiE9D5vUU1l/9Nq0rcAGId7hbFXuBcnf1c48tuIRHYldn8v/wks2DwdPzHb8uyAhBWcQ3dEvDwsZCD3wcg8bqfG8tXUhKAhX0rLFIY5ty8lEOM2h7WqZ0DfFdrg7bVniMWY7GyR1RmZnk3a0y0wqF1sTpqldZNjkPGxtZ/rkZK1UmcN2Qj9q8py78GMxD19unuIwvr/l3it4kNiOAsnQpg4uCsZKcPGwsCQO2LTWsQ2jhifTLME41RRbG25PMxxHZY+WzLXaF3OTmZVpOmKSaq0jTbO5bdlsdvSA2qZrsgCpH6TYunWaZ2tuLjapDq03lmNrMGq27rIJU6rNYOsBd30uaw79+CX1WMHg4ue3gAfPYEjChR/+iGYWQUi2Fv05DL15bhwbJGol9mS26Ayqw40AtqZBx2fvVWobB+wjmTtWu8LnUaXdbnBs5OHqR8eHe+w+XOrJqmB+eq9mNdtwslMT2AgyXW7VjXxsPdrE6CzHxryGu9OollVNPKYUWwUetdOZsxLfi19gHpKynMw/4tKE/xrEkMreR+Nopp6Pfk1y9q0YtjoMhyUTRTpFzcoUG+DRjsASq2A7ThUe90LeRvjA/CjDk4aHDhPeYKNvAuedKTY5zTAWsbXpwGiYWoKtDddwoecmjU6a05xia8DTctvSnDxvOAIodKsgSMZjQaj/g9gaMarJi5ItTAPlMc6keAvY6PW0Lj0Cwd8pVgW2Ikw6kQ1vwa0fL8Em7u7E5n+CDNAWeSugUFNs5jRxWIatvBRbHZ4uv3pFt23b3RXYOk2wdyNNn8Rte1J4zTeo6NpjPxITMul/99nLH7fPyVjsYUVK8p0kw6Hvz9ubwGbpwiroeEjum2LbcMDYePsmZcX45mBzeV63C3x6/J4d4WAAIv0G2MxM1ZmDTV2JzWIGzcFb9VarVW9zbGYbMqjMegzNbmkGQRic565yJP17npXdKYloEESjs3jBrc1gk7Zt5h5qlJKzMcVWMeVs3gsjAi+Yg03kMOzkHvdQ9iHXtsafDWCDEPoKtqWTdMPl454VS9QhctnThA2SLppDePFjlLsSqYyeuEENk37KbXAfLtnrS7EBBLcm7djMtlJsB3QQRuolwFmB/SxiS20yxcaKW1sIpmaFY3MzUS4nJNjCuedi65jzJ2SwgexpSRtKYUzRhZMfy2r1i6/c2kIyS1ksiF6ePOrVVlobmBHB5PKHnGLbAstIQ9IJWFtzTWwntjyvNbFBAkKb5GODo/bCIkkGG81DearrTR4Hv27uzm6DKMmvOpVf/H0sUpd+U1iT8yGZ1WH+ewxTbOyKzKdaWWxgbelyXAvGvS62bcDmOhntt9fBBumupi1NdzvGKmvjq52iQBh+I34qeqbFgJLPLbriVkXc3/WAvgES3JKMhISCxSg6iw2Cggy2fyxlsLXX922L2CB50ZuFrIrrYGMRmx4AbOo8NrjCMt+m7QG8TdHfTaKs3CUg2K5FD74UDv+4/fPxdOX7C1Ns3DLo/VSz2GChI13FhEgKRc9a2OA2nIUF7lexsfyQlfJG5rEVWd4oHrLBSyerdXJy0hIJCMls2vBnl9fF50l+HMjoyeM+jNiXR193W72NnMHW4Eu67OZTbAWWb/N7LE9d8TrYNmbaWBWq5uvYGtxo6OddsKtu5vKQtx1pmbnbpnmbI7BR7wmRS1YZ1svn/H3jqUaxx5fT6OsKIQmgq/dDM9jEBoJZmcHGrJA3YXkky80Bm7ZXXIWN9anzXPnYMQxj31qBrVgsWrVKnT1AWDNg5GV1m16nzVYKoEqAkbAkpsk8qJUprthKK09Cnl6i/GXbVOfTSsCj8v3VL7RlsXF/6k7LKMAG+a68WW9YVgUqBk6HHde0Vr21HFsFbMVsW8VibdsQd5KPjbQzDNNwDb4oziYmq1Jk1T483jM0W2ArskUjfYvUpLaolDOlPCtKdUic/NOfz0mSRP1xrl8j5cClxLeN6csga7zmkcVmAQdWOWWw8cUEWyf3BENlJam4H02zu8uxsSJINoyurMMnWOlegm1G+jH/W0/sEpHrdU/SUn6XVcGqrueugPBpqtOYT0rNyyAKkij3DQ+K7cx72wvhWWxsOjob89jY0lWqkkhG2sIZ7q3AVuiqrBFryxYqX8eW2fArbKbram4bsmC23naQXQWUnfn1NgueMcQyuuF0NqLccrElUXLq+W96l2gGW8MhplPP3jkPYD03TVtNczfdMN9h67YrsUmF1vTkTZfBWImNjMEwtjM7DzWTk3d3pOMpNhJj09VdlSeW2UVxvgpaht0qXxqe54dTuiv1c/LGN2IKJeKlXXG79b09mdtSdZ/8oSQKlI1tQzdV03S0Xna5dLdFvJGha+Qjba53BbYv2ZN36w47WT3mMI7pVfez2PaJC+DSjg4rGWhE1o7q6LpzRHAcQlQRx7e6jmGahpPuUpRpx1943rFN2+r7G5BSEJP7vgybch77b3wb3AItHi/C8elOldWolMuVjYVXbMTpM/3Mn9zswMnpgQL8vTjfjTV/OFVho9FoTs+cnlfrVCqdZnrKTMe8U3FVP3w4h0mpsJ1PgY2UDTfL+fzfRVeNJjcUWhDMW9vZRw/uE4uueccPL8/K7Cu6fRIqTj96bJ9XkMKG0uSWVPUz9hYFo8lHD+7zyod12tCLz15mlyrH0QX+s8YrosuOp38mQT9Q0iQuevzoUf0n5MWX9F+q+EyNgggjwjoKQ+n+Z8L/zYViw4iwlrxiOHl8TmutQfyWuur/Kh82AMO7Eduhwjn6Nv31K6GbBskNGtvaIv7NK96djwa/X+P/760vmsSRCj+O6XLuRw/mvybYPH5l/RuVFbJCoVAoFAqFQqFQKBQKhUKhUCgUCoVCoVAoFAqFQqFQKBQKhUKhUCgUCoVCoVAoFAqFQqFQKNQn1t/C/kJFyNZv7gAAAABJRU5ErkJggg==;" vertex="1" parent="1">
          <mxGeometry x="640" y="825" width="152.15" height="80" as="geometry" />
        </mxCell>
        <mxCell id="IjemsFRVP_cy6X6xwkhd-23" value="" style="swimlane;startSize=0;" vertex="1" parent="1">
          <mxGeometry x="140" y="670" width="200" height="200" as="geometry" />
        </mxCell>
        <mxCell id="IjemsFRVP_cy6X6xwkhd-22" value="Update Dasboad" style="rounded=1;whiteSpace=wrap;html=1;" vertex="1" parent="IjemsFRVP_cy6X6xwkhd-23">
          <mxGeometry x="40" y="130" width="120" height="60" as="geometry" />
        </mxCell>
        <mxCell id="IjemsFRVP_cy6X6xwkhd-11" value="" style="shape=image;verticalLabelPosition=bottom;labelBackgroundColor=default;verticalAlign=top;aspect=fixed;imageAspect=0;image=data:image/png,iVBORw0KGgoAAAANSUhEUgAAASYAAACsCAMAAADhRvHiAAABFFBMVEX///8mJzD/S0u9QEN9NTsgISsAABMXGCQAABYZGiUAAAVOT1QAABELDRysrK7U1NW7u70AAADz8/Pf3+BcXWKNjZG0tLaAgIOUlZhCQkoAAAxjY2jl5ub/OzsSEyAFCBnGxsj91dX/RkbBQUSenqF1Iiru7u86O0K5LDD/Pz//NTV4NDqioqR1dXlVVltsbXHbzc7JtLW4JSr5vr5yGCJ6LjT3SkqINzz43Nzdq6vVlJXIbnDgurrDXmD+9fX7Vlb8gYG3mZv+kJD5mZn6tLT6p6eXaGuIS1Di19iRW2D7y8vapKXGY2X6X1+gd3n6bm6rh4n9fX3BUFLQvb/eQEGhPEDRQ0XAp6nnR0iGJSzSJSjmysqtIgt3AAALHElEQVR4nO2bfYObNhLGjXdlwAZj43fZC8TrteONX9ok29vcXb1JNmnT3KVpLtfrvXz/73GSwCAJsJ0W7LUzv7+8CNDoYWYYSWyhAAAAAAAAAAAAAAAAAAAAAAAAAAAAAAAAAAAAAOzIiz8f2oJj4MXTx385tA0Pn/HTs7PHfz20FQ+e7y/PiE6rQ5vxwHnxmKh0dglht5EVUwnCbgss5M6+6rBb3b3cNvYXgTORsPv7ttu9uvkmI8MeFrfXw+vXG4VaPT0L2RJ2v11dXf2WqXkPhg/D4vD6foNQYchtC7tvb67Oz5+PszfxIfBmWiwWp9O3ae1/e8yptCHsPj8hIp3f/JCPlYfnukiZDt8ktvIhx9zpReJp3/z4/JxydZqpifByWPSFKj5LaP3H5ZmkU0LYvfvp+Q1T6fwmd3MPxaOLYsDF3Xu5UQy55LBr/LAW6fzm1X5sPgR3a5mKw4sPj4Smd09llWJhN/45FIkk8ME+Dd8vb6fFSKjrj7dcUyzk5LCzf+FEOr/5ae/G74/VdbHIC/UpFCoecizsvg8vfcWLRBL454MMYE+sk3goVFBvJoUcH3akmjwXuDrgIPLn/UWxKAnF6s3EkKM8pa2smhS4+eXQI8mXYozpxduUkAvC7vO5LBJJ4O8OPZB84ZN4KFTxn2kqEZ1+jYt0fvPjoceRM2ISj/hXuk5/ist09e2hx5E3H4fJOm0Q6klcpkOPIndiSTzkuxShLn+Vdbr5+dCjyJ80b0oXKhZ2p57AKfcJSTwS6nKXsDv1BE5JS+IB/04QSgq7U122FElN4ulCiWH33D70EPbBs9QkHgq1MexOd9lSZFNyCpDrTT7snp/ssqXI/ZaoSxKKD7tD278nbjcn8TVSdbB2p6sTXrYU+bCLO0llVBh2p7rvFOfZDtkpJlQQdl9LAqdsfdclCsXc6bSXLUVe7xZ1vlCXQtid7r5TnB2TeMC63qRhd+rLliJ3X+BOnFBPTnrfKc6bXZN4KFQQdqe87xRny/w3CVpvXv7n5JctRaSdqJ0gL73Hh7Z7z6yGXxp2hOF//3dou/fN6v67C8J0Oh0ON3oWaR5Op+xcYTf962F1+/7Z2/vXnz7eDa8pFyL00PTuw6eX92/fvL/9ar9ZFVmtVreERz7kFzlwaJsAAAAAAAAAAAAAAAAAAABOjWP+7rHdrIxy72QwWyoaxtjpdbzcO8uK0Ww2qwa/5xght5Jvf7UedpDCQLpb6hzJx1h1x3F7/s9GnRpfquXYW6OnBRoF6OVujt1lR5k81cCBai413MnR7loZ+W7kEHRfMNF97e5o1K2mXX84OJl8bzJCb/KoyVl+4NJmHeiGMh9Vq7NOD6vs7x53ik29e5FhnxnByVTolHWkRTa2DMepW9l15T8GvGysD4y7BvUoZxmdY5eIPc3s+swKXqZCbdnnHL5FHraWoUw9qonr8YfGPZ0cK0edHIVMIhnL5BnUlxrS0QkSDACZ5nrS+6HBxAvLApCJ5msjXnz3iTuZ4Wvjq5fJxqSnXvx4tW4Y9cjJqEz9tFtYtVpNjNqx5XnWhhJ1QNs3vq0b5ATx4ZFrYpdsk0nOJb+bgZEigE1gPyZi5an62lmkmnPa9MeirJlmvRVdaXUQ1lxXw+rcS7pxdaEZtN0oVcRSrO2Qdwl1AKtfMugNemG7tXTpNYY5F0bOy1QziUXsAs8ULFZKX6RIImPqTZNNZ0gyBXnMIv7lEpnmfmmqho7XWGA9LOaNScztW+GsiHRsarxQbTK8ksUqoKDdnTCXtJvhPfU6n0cFmciDM32ZXFEm/PukESjT3LRpCpfiTRoxql1YOMLRQmFWF05HvJsRGrojPWnOk6lMJJ00OWdAKnHpgaPzV3QE45O8SZLJ+IMSUSpkWPpywwkIG4bGTDYodU6m2ogYhBxX08qBGi3MHrlrYGy4bHDanLuX5YuoasSlSgZTzIzamUwNck9kkus1NhmgeRMh4lf0jia7Gre3yFQjedVgnZu+yRnIVKXPTtswYxwQGuQktBjTnwM7lEkdOQrClZlnWW2PHZ3ROgLhpUfc0/bmmA6rFC0CjQ0mktlioTiosvkj9niZTOIKWsUjnTRabDKg1TqqYvTpkXF7wpR1tshkEyvHHZ3ejFmcycyOPSG3v3HpJF4QUJkUVVF7fEq16LzHqYRmDSrUI+rhKRUkuRc9EL1nqUyKruB1vhoo9HxdVzRvfUqLnuKG7pQsk39mxpMVK5j5djbcM0UmRRWjlaYxRzjU1PmB0JATHZeGRjgFYDIpOFoyGmt+bvGiC/pCjtijTMEKAV0iaHkpp6TIJL0i21q8jGEDD6wdV3tYE4UlYRuNzfcmLkOzsSo6n93Y9EBd/7VPmUidEbxJdBdXukm3TpGpJJ5LnUl+adK3DjfyRktsb2hcM5MJ80Ul60UcLO0kPGevMhXseV0N38CaG68Kk2VCinBSA0u+wKD5RU/vmb8xlUnsxaa+YwpX0Dmosc5++5WJZMuO5kZVYUmRViqTZRKigbzmSAAZsekBNRenv2tK3ECpTKqQuqhMUmTTN1hp3cu+ZaLdzNVSWCC7itBDskyqWDo2kexf7LYmP4eWoXMeQSazzTczmcQZ56FlokaPejjIU6jO73ntJBN9qcXrVDb5myV2Z1sj2tnRyUQY15ZBsWtwIuwiE1trqHRkliimZ6FRm3WaEwdrrFo8RpmYuRNWwJSjUNlFpgGrwHUZJL3krW6lXDIdHUUT4COViWRjLE4KdpGpUVLSiGTyJoYazY2RYx61TAWLvYnDTneRyS841STC+Ukf+xoh3TE1rDdHA/OoZWLlMQp3vXb1JlTpJhKM3V920TWz0hnV/NVNuSA4Mpmo/Yq7/mMXmej0X6qkJOiyi4KMFm/8scvU4ycFOxUECTM6EYetH4mzlSORyQ7XvCUW/ARtJ5noqog4sRCh68KKLnV2HDJZdcPAiat7ivKl3rTNsKojz0X8SD0CmeiOQeLd/CooNHcXmTwtaeobQd8K4ia8P7YjkImtSyQlXjoRj5a/7JKcdxJkYjujWF4F7YSLWLMEmZooT5nczGTqOsJy9JqawZahQ3NZ6cifkCRTVygifAZl1TUWLHjZOMTZHfuAIR+Zuqp8sz+Czept2Tvb7CiniyMvwiXJVKA1tSmGHffNxgDLWg/M/CYrNBNmuJ/PihkFd7g30KDPdkDKXnSIBceEOydRJqauuYjibjChSwDrr7FYgHP7cp7J9gTykYnNIzRp3ewPsGALl6qxrFpj2x54o4o/o3B5t6iV2BSsM5t1/CW2RJkKczZHMzp0uyjcgQr9i0WyrrT9ndzawiCPOzeZ/G1Yt9KddbP5DLpiBvNQje79ucHSnCHmdfZhmKI7TrCZmCxToc98U3cNB6nBfqYTZasmeyKmgXo9RJdrkDvO7U1X8NhOCFIdBxUyoSNuaLOBlqWVNButtxV830iRqdCS74V5uXvB1ri/ioLKVn7lJUni5bUJGX2+bVUwt7xB/Kq8jN3ZXvj7zcHStIURMhNkKlgTI9rx1zXFE1o79bARuRMSv3WE1PVAqyWESqJMtFlaCzcRCjdI+atrBkJiLmoHX3W4mX0sbrUmWDPpB8+mhiujxCV+b2liEpX+w20s+v1m8tqtNyfxZpqma5hLT25szN0S7cfFPSYIuU1/7W+1JrmncIXNN/uMyEmLtX18s0evFgWxRxNiMVYzqwvoPa32bDSq1jaVZOMd9+MHXrvd9lI+wqL9VL09/R+Dvf7oAQAAAAAAAAAAAAAAAAAAAAAAAAAAAAAAAAAA4Bj5P5JqFZ93I2r4AAAAAElFTkSuQmCC;" vertex="1" parent="1">
          <mxGeometry x="180" y="620" width="123.07" height="72" as="geometry" />
        </mxCell>
        <mxCell id="IjemsFRVP_cy6X6xwkhd-6" value="" style="shape=image;verticalLabelPosition=bottom;labelBackgroundColor=default;verticalAlign=top;aspect=fixed;imageAspect=0;image=data:image/png,iVBORw0KGgoAAAANSUhEUgAAAQAAAADFCAMAAACM/tznAAAAzFBMVEX///8AAAD/8QDx8fGhoaF/f39aWlp5eXn4+Pju7u6Tk5OXl5eoqKizs7PR0dH/+QAhISH/9QDd3d3/9wA0MQDX19dzc3MbGxtoYgCurq7p6ekdGwD//ADV1dVUVFS8vLzHx8dERESJiYkvLy9MTExtbW0oKCgRERENDQ04ODg/Pz8TEgDQxAAnJydmZmYlIwDazgDw4wCpnwBdWADEuQDj1wC0qgCLgwA/OwAvLACvpQBQSwB2cACVjQCglwCOhgA8OABWUQBiXACAeQDyQu6wAAAMoklEQVR4nO2de0MaOxPGXW4ioggoForsgqVqe2rFWo9v315O2+//nQ4ok+tMLrDLZnv2+c81LJkf2ckkmWT39kqVKpWHqmfxsDWr7+/XW+1hfHHQzLtCO1RvOJieR4qup4NhL++a7UCjYeNKtZ3rqjEc5V3DLHVQu6SNB920D/KuZ0ZKJnbrXzSJ865r+mrWDC1f13U77wqnrLaP9S/6kxDEXr8+6ORPeRB6bzYxf6U3f0S/2NrU/JUO86791urdbGP/slMseFww3M78lYZ527CNBtvbH0XzvK3YWM0tmz9oWtCB0mijzg/TVSEdQS8t81cqYH+Yqv0FJJCy/VFUsKdglLb9BSPQ1CZ8ttdJkfqCafr2L0cGeVvlrnoW9kfRft52ueooG/sLExVn4ABBxegM32UH4CZv21y01fjfplbe1tmVegQkK/xoYJotgOD7wjhb+6Mo9JnS1IbAlK7yttCsDeb/fRX2ekH29kdR3jaa5NQAXn/838fXWwAIOR78YLP915e7RaXf6VYWd/ef3m8G4DJvK2kl5pp/eqh0+t1uZaVut9+pPP5/IwJJ3naSapiq/epz58V2rn7n7ucGAG7ztpNS1VDp0zvN/OeG0HnYwB1U87aUkMEFfu1j5j+3gsonbwCh9oT0KvCXMWH+SuNvvgACjYcPyAo/dAz2Lwl88SUQZhYRORH0aLZ/SeC7J4AwQ4FborbfTO3/RZ2vfgDC7AeIyv60/f4rdU/9CORtKyZqJmRB+X8JwGc/ACFODhIu4LtLA1i6gd9eAI7ythYRsRjQd7J/KS8A9bytRYTngd67Auj88AEQYiSA19T19690F/CR96+4flEjxryt1dVE6/nVzQM8NwEYGp6OO1zjz7hzCG+l9Ayt54NLF/Ci/j0DILWMzt1H5MYXedurCZ8LWDjbz3vCUyVw6i+Q5yDJ215NaC/4j3MfsNJ7HECl/5d+5/D6wRoG4JW7C+BOQANQGf/U7lzL215N6JLgDy8ArygA3QftzuEtEs4wAM5RwDOA3ySAhXbnWd72akIBPPoA6H+jACBhYnih4H8eAOoD0noE9LFieI/AIQbg73ScYF+fMwvPCaJTwr+8ADxRADr/aHcOrxtEEwNO3SPhCnvQNQCde/3O4aUJEKGwO4HuHQGggwSCUZK3vZrwGTGPbqAPU8MSgG4fnzQ/y9teXSgADyfQf2IAukz9xSM+XRrecHjrCRHe1b3mIlfQ87YWEb407DgnyqMAN4U4JYaGglHk6AWRcN+k8OIgMkHOcUA49lsbCm86gM6R/uzSBrA5D5OCTBglEoRcgqFu5drL/uu8bUU1J2r722Fx1DNJIszFUTJL9ruNgOe6WJgugFoZWOne7Ag73ikigSYJ0YekfEMzpNbPf9czOSDMKGAlw16hTxVqUNBZPNEfIxRmgojpGYhWeTJYI+j3kaGuVYE+AXQ/8Kynv8ZKK+j2Ow+emSHPCrMPWOnCXPGnx8q4A6my/c54cb+J+VF0nLedtKwnJjz9eLirjMfjyt3j35tZH3SydHZbJkWFNxsmKPMdM1F0nreNRu2gCYQZBTLZtkxsrQ95W2iRZc/E9kryttAm50MDN9M0b/usynDv+EpBzoTIQlNF0lJ4K2KINj49z653edvmJHrjxNYqwAOwUmYbqAMPAbiIJYJtVZhDVDJyA6HOA2FqOhyg7KvzANdDaVX95vldFOZOMVKpdwUF6QC4UiYQ4iYhiw7SnBso3O+/UjU1T3hSSPuXfUFKveGkUP5fUirHyg3ytmIbpRAVh7pX3lGjLY9W+1BA968ITSJ2VYi5QN4abTxLdlP8n/9FyclG9hdm9Oug2H+6vBCzXx6Kvbzh+Z9m/krH1BETmhpJ3nXNSNWhQ2w4rRU08HVTNR6YTp1uDAs27N9Io7iOZFbfDNoBbgLITs3ecdKutWb1er1Viy+CTfspVapUqVKlSpUqVapUqVKlSpUqVapUqVKlSpUqVeoPUtxSddg+OttZduLZ8EXWw6KHSD1jMo1ovq+qXjvCV973iaXqo90wgG1m1kMi8WSr63mClsaNusRST+h8ztkuFm0BwKGtIPkiq2vMKrKwnntlSmjdQZ7m9gCWViVaabqwdgKFMaP3TebPQRoAkB1VhrLq/ltLSnPWKTvpAIhulF/KVHYiF7XldGd8ln9KAKJrOb3IWFZ2uNak9mwzVtMCEH2Q2oCHSQBgUoceczB5K5bOdseaNwBez/kbKQlX2lkIF3kcMH9HFAUA0gFNo0Nh55vyzKQrHMABE/NBAEA6RaUntl8xuRyuSYV5KCE2AbiF2uUJO2Cz7A1RAEJW6RyuAQClI68KZQV3BZfk1suCPpEVBUA8D4NHRL211MJN6h/L1nTU2m9MJrf1Vox0KRiAAWI/BUA8suDEBmAPdnKJZ5GQAIRXx7CNO+zAMDVIPIZ/KNebNWn32GVbdSgIAKHtNfhVEoBweA1/jAkAMXKdBiC0AehjrABO5MvIgRKHeIlD7DOis6IBCNtSbADYdaGlGgDwLhLeaOAH4ADdO3guPSYagCEvKR0ZYQDA96uzf9oACHm5JgC8O90EAP72pUg+DEcFIOw0u5RqbwLAzm5hyGwAHFsAf7xifwCG0+UEIxQAgueVIxsjAO42wM0SANgh8ELcaATAbjT3BmDcP83PxJMBCI3mXPkKIwD20mOwggDA+kHhmhlAS/6EB4CpCQCvmARAOIboWu0yjQDYf6HbwAGw9iXuRzUDYG2m5wlA9P/7R8lSQ/HIyVu13AqA2Gi0kMEMgD2rCgCpEPeviTOAPdjhMfQEwE3hEzZNYRslRG0CgKYQ2usBlRlAVfkg/Hl8Bjpu8wMfr8SPWgDAzzbzA8CDE8kU3sahCQgAhBMpkd0jZgDsw0cyAFzSPSwAoIITPwBT1H6RQFUFwD6CnxtqAQA/VM0BgDwnZAEA/fKNFwDNKzOx5zBWAAiDmgSriAUAdIQzBwDysZwWAOA4L70AMHer3xB2kc5kAILMfp4AAG86GjgAkG21AJAtcwUA3g55KRibgKEAECdHWwCA07l1ASDtzHVsAW+9AMBNkTNg4Rm4pAAQc0OOLWDuBECsmKMP8HsEIOJCvFlVnjlAHgH86GQLAKXN2QAIsbAFADStd14AYErDfgw0AgA/OtcCAL6xJQM4FyTNIPL1EQsA8K6D3QHAD06xAID5vrYMQC7UE+ZaWP9sAQBD7ZcnczcA0OOjLQDgo4n8pzoc5u8EY/7ZDKAp33hHALB3aZkBsLH3egxB3oiNN9iDZgYQyzdOwQkqEgCc8/gZmYk3A4BRK5hFk2SvRoRnwAwAvnY9jZppC+gJ06F6bcwAYBkD3AcNgA3v4EZGACx0X8dtWQJYjQ/5kpTfcJhFnuA9DACgbhAMGQGwGfr18IwBUE868HgERus4oCkDSFZ/cR+lnaFrBMAGkmCwAQB8IyyOmACw+sBrDRgAdbwOvkKJBLGwVrJYTZHhDULNmTEBYCMs1oGmBICFDswQuKB2VPD0KgHufE8Te6p6UkkIgPk5I8qcgAHAgf4ZAwBl4GwCwOew2CUN9Vowxlu7b/ZM6hVgs4xVFAA3RgkIDQDY8gMf6NPfzxox/IY0AJ4/xlvyVK4+iBmsOkstd4U1gHVltYURvjAgf5YGwBsNfzBpAGxaDtwsBaDJMxJu+FW2ViTnGrHFdMCqr9W8qMr8fI0AILS7xAXAiC8/Cc2SBMAWMdnbWggA4usyBI/HFy5EJ8UX3qvaxyU/eHGlltQBNHkZsfo4AHGeVSxOAeDti30hAKhVeVJCPBOP+5HQ8MsNaEPHfJjFVzO5FQ3WF/aEpEwIxZHV4WP+UQRAm9ezFwsL6XKfC9dGB4J64lFO7Bm25gjJnlwkfrNfqx3eiiel8TqIp0m+va0vNZGGo/D9WH4Ar5LQfGw5QvJEiq2w0IBtAMRfYc/ySjFxOdt8jiDrRtEMESwgtAGQZ98shdcTXC4AFPvNB4WK8auRFE9RQQHwyXMeEFoAKKdPmgtLNTUDMMxq6pL9k+F9I8Jd8SQpHhCy62YAah9mLCwnPxoBJLr9UgqPsRIkAXFOlkiTm7LC0AWZAFxpK2kmo4g8QUR1IkOwhZbWp3GaqB+4kkZIBAAeEEJ/bQCAzCObzL+VgzgSwIxOEz7WXyzXQEvH+nmi1hyhF/FAYmYGcF7Dfiba/Ik6QsU2TFxOZok5PzSWf9w5eRaeXHBCJrlpGyb4Ulny/DfSmq5vGi0ilRk3/rKBnNfYrGpyyo2tJu39wUr14YXxA8uCs2XJemt4jJRrkt/J66P86VJPpLSjXaVK/Zf0L+LV0IiDw5MTAAAAAElFTkSuQmCC;" vertex="1" parent="1">
          <mxGeometry x="520" y="330" width="87.07" height="67" as="geometry" />
        </mxCell>
        <mxCell id="IjemsFRVP_cy6X6xwkhd-26" value="" style="shape=image;verticalLabelPosition=bottom;labelBackgroundColor=default;verticalAlign=top;aspect=fixed;imageAspect=0;image=data:image/png,iVBORw0KGgoAAAANSUhEUgAAAWEAAACPCAMAAAAcGJqjAAAAyVBMVEX///8TB1QAAEgAAE4RA1MAAEmxrsMAAEsAAFO8usv19PcAAE0HAFD/ygDnBIjV0+BjX4cQAFMAAEFqZY2Sjqvu7fIAAEQeFlhIQXfNy9l8eJoIAFXl4+xuapGhnrXmAIG4tsT/4o3/2F3/3XUzLWTrO573t9j+9vr2rNNua4opIGLe3eZUUHhcV4Gsqb5GQXCGg6EcElovKGQ/OG+Yla88N2oZEVbEwtFQSnt5d5P/6qowKmP/11Z2cpb/5pmIhp8AADr84vD1p9HTtONsAAALYUlEQVR4nO2cfX/iuBHHsWwjsNSCATvhIXTvjl67PAUCOdhLub32/b+o2pZGtiUTA4k2n6bz+2sNWj18JY9GoyGNBgqFQqFQKBQKhUKhUCgUCoVCoVAoFAqFQqFQqM+mSOmje/JJFYxbYyHa/ui+fE4FrVCKIGErClqeI4SE7QgJ2xYSfquGX0DDyu+R8Fu1iolQb1X5PRJ+q7quBOj2K79Hwm8VErYtJGxbSNi2kLBtIWHbQsK2hYRt61MTjr5KbT6wE5+a8MRlbiq6+8BOfG7C4zDrOr//wE4gYdtCwraFhG0LCdsWEn5nHboPUl3xgU542IcCD0H6jISvVLPnSvXEBzrhNhRgLhK+RU3iADDxgUEYCngtJHyLDMKrXvmeDgm/UQbhaCKz0iYiL+29CAfD6cNquTpNO68UWqxPSZn+fhhcWOtw310tu6Mvi+qvo8Omv0y+X8vvzxMe7rPerV/rXarDprt8fH5c9gfDC/P2DMK6biXcYXepfptlT4tTSKnrcpdROt+f4beeUZ+5nLvU512RSzAKs1rcpigx4NljKAI30chJKk3KM8IeDxVd6Lokq4/5bD5NGz1DONp4vuidT8ebSfbZ/LesKVLs62TjZBVy0cdj8zUAIHuE4yy5jXvpCPo9FkI7XujTdVVDLuFQtRO6vVU60q9MpMgBYZo9sm/pwzQuVMqN5IPJseeq7x3up7NUTXgQ00LvWJzOXxDyrKlegfC+MIq0j5zQTf1CtkeYyG4kb+CWOSWF8YNRfhSH5UJuK6l/JfZdXxEWX31NZu1IvFJ5WkZ84G65vrTRKsLRPSkXdPzZpBFxUbJA+CH2tIKOF48+nLDHGm3G9Z45/lEr3teHmSAh68aRVxHmq0b0xPTyfnG0bT/Uv3f81cIzCFdU5LjbxcT1NMKbvIc5aVJhnH40YX4Qr2DIE0OXd01bcUXAYeJ8Z//Fi5v31YTvG0/aCs2K53lgB5IDzlrOHtnLnaMRDgoVeaogn7e5RvggV3DICGXU97PBhHxyPeHffwL9/h6EHWeb9NlzyXzVXT2z3OCRQaHwNFY4GH1JSr5Q5qVDvvOqCIe7U/oPz6UxIbltdNWLEbXyD4lz7HYfW346V/BpTnilVnBI+XO3u9ySFDmHkorwTsw1b40Ow05n2Ow/UxryWS1gk/C//gL6+X0IJ30N/ZPwvxaDMSwZj+Qe1kQNiLujTloy6GxoMiRPtqURTsql7OjDdNFpb1pqFcawonJu8aqdbUaT6Qz+b5FwU01t4m1k/zs6rNL1D4MEwpOeHEzuzi0G894Ft1EG4Z/fm3AyHp6/vtE9DDRfcY0TAHHnOfbFPH9/DcKpTejLfTzaQUE6FZ8MgVtIpqq+4FToERAew9SSbr6lNQs2HAh/IaUWZJWDejP8IwiHrZJLo9ZXD5bDAoryp6L3GbyoHdIkHLLc4wvmYXnS5P7oeLREIN+rgPDUh7kp+QSd3GsAwlN6wZgrZZ+w55cTkRUPdpKfALfQLe8bC+XPGoQ9UvT21xJUOBb/j4Fx2Zf7dITFDoSf5VRwzbWZKipAeC1aZvXemS77hI1OtYHHXPb+ToIkU62kAmoQLlc6kRu/x7Ia97IUf9HqAxcMCC/gdYr1Uze8BYpw05ct6H2slXXCHjNiBrCl+8JMLHqS+FY/TQdgTw3CcbnoS1hsaynxEONU++CWCIORcI1kdDVqIAym3aNV5/PXZJ2w/gI28jUmtw25PHKrkavvVhPW3wtYcjSds2gMvI36DtApQRiAmyOJwJQpb01ZLE7Ianom0lQl64TpwPgKxukKpBt2tj5p/QzCvrY6IahNU5M/ic+tzMakfKbbwWI3Q1HyuJ4T3sOmmNZM4+2o+mcupqz7wxXnykiaBbdbHIzHzMjhkFQT1psGdy/bVGEC2XezV3JrE4QDudjDJ7MgTLsiHNyVzv7J0W5XFb8yZRD+4xfQH9lzO5Y/AeX8JsJ+xVzL5cAfsyd5MvZa5gkUlmMd4VGRMAyJ7o36wJwIwpHcICsMGXhnhbhERw+vcDKriyY3GpfEJe5mUvN3IwwRrllW4yuEgwvX8MWE5ftST1ieMIqxtY6jx4h47wL3uJawMehrCVdsvbIK/pw9SS/V4+b2Ed2yhtuvEF5WWYmqOyXYfovx4ahLtHiTd8EJxDph8sX8Ttphvsye1DZlvnOLWwgPX7HDjyXCW2mH52bBvWElUg1XPb8YIbwkuGadMDODIx3Y7MVt9uC8L9G8xUqA8eamLxHdlVbt43lfoq/7ElDDujtnhXhehYt5ZgzWCMvtrCjYRaQjp/xh80SqyF1DOArP+sMd2GMF4a/gDxuWLJjp/nBBk/boCeLP8hj5iirumkHVV1BXn+lcw7wqN1RsgupM92R0FqKaVxHOz3RGB8EHk4TBFLjGpRZYmkrCKYWmIxuJ6/yJiowU+SdQ3pi3dj4uAb0PHTmHEEI0TrlrqOM6whuIS+ivD2xtQBiWtEP01aTycs4QThayNOK1e10FYen/MkH4178r/SPr5dXRS6LNMixhdeaClRU65eEoIFcS7lCvupiKQ4P3APFRpi3igwrMnyUMvb6FsHyWa/jXv/0VdCNhfldaISMVvTnoRVlpbwrym4rrCKs5DMclC7VW3IBwHrwrhczyOxdFODIGK03MLVbivQmXbi7ymwaen1WX6pJilS+ZaJlfaFxJWA2Ke4U9bG/ecUSw2r1i+GS4zU9vQPjw50o7OonDi0ev3uksEHY4h8yNw5PC1ssHr/YVh83BFjfHBe/+SsINFUMIfWi5s/Q9df2mzhgbsMSef5SLMchuCHXCA+r6x2KrazE50qf/UMJheuvNevP+fvrQIqrztOhIqoE6IXGTgvsuy9whvr2NcEdlq3gsvv8+nY62cXaFLBHnp7gn1SEet0bT6ff7Hsuu6TXCieHxOCGn9TAKgmDShHwYUhv+sU44fArFZLuMFrKc2GPp7drlCzZMCjJxGRHvq/MlagkXroGSlhml4ojAlvJ0kxNe5CY3aTkpyMW/BmEpXyIQPrbn+qRHWiSGlcLrf5hnnbB7Wuv5UulYn8r+UTSvyjDZwKnrasLFDJ280Vm0ViktoENFclBImlrOz7BYnVcoWB9ds0/4odGMtbhfSHb6/hDtfC0rjMf7ZDu5lXBj0zMaTV4bGTIrxnqGxDVabqurP0m4M66YCIf3Lsi+/BGEG4sdKQw3ZK2KqFdyTmCFkXIyS2l9db1Uee6lJ54NwuLzYqj08FSEElKeegsHkpVzi9G0ycovTgYnu0VmFrKSyh+ezolbhhz6d5fcc1xAWOlmwkkzR+K7ab4oZ2Q8qo5HLfoulPHJo9hBTqyVShH2W+JZJ0zl58UhB/u7mKVmNrGvsSPSgg8kK+eWzWf7MaaZPU5LPoq2xjwrWThxHB44YXCrzVm8PZcHXVYt4X//558g0e+bCKdpTaf77Xh+3LTPp9xG0/58PN7uvk1hDgKZkB+UHyNtbEH1n5MNDt92Y+JvC0n1Z/7ubGewdGiP3T2oO86qglF7cGzFvTjukdm39oV5+rWEdd1K+PMomOgT/KqQsG0hYdtCwraFhG2rlnB0GIKyZyR8pep/dfun/I1oTG7Kl0DCtYTfmFWFhHXCq5gKxSKrzCDMGPyYHwlfIoNwewoSAA3C6u9NdF89lSNhqat/T3epkLAUErYte4RlVqx+Uf5/J3uEx/NM29rErk8ua4QbAegdevm/LHuEUUJI2LaQsG0hYdtCwraFhG0LCdsWErYtJGxbSNi2kLBt1RJuwj0dqfhdH6petYT1u2bUlbr6N6GoK4WEbQsJ21aTyJ+AhkjYjppU/ox5TD+6K59UKnvcSAtHoVAoFAqFQqFQKBQKhUKhUCgUCoVCoVAoFAqF+hz6L2JcBXZHnfn1AAAAAElFTkSuQmCC;" vertex="1" parent="1">
          <mxGeometry x="360" y="330" width="148.11" height="60" as="geometry" />
        </mxCell>
      </root>
    </mxGraphModel>
  </diagram>
</mxfile>
